<?xml version="1.0" encoding="utf-8"?>
<!-- Generator: Adobe Illustrator 25.2.0, SVG Export Plug-In . SVG Version: 6.00 Build 0)  -->
<svg version="1.1" id="Capa_1" xmlns="http://www.w3.org/2000/svg" xmlns:xlink="http://www.w3.org/1999/xlink" x="0px" y="0px"
	 width="64px" height="64px" viewBox="0 0 64 64" style="enable-background:new 0 0 64 64;" xml:space="preserve">
<style type="text/css">
	.st0{fill-rule:evenodd;clip-rule:evenodd;fill:#00AEAD;}
</style>
<g>
	<g>
		<path class="st0" d="M63.5,10.7c0.4,0,0.6,0.2,0.5,0.6c-3.4,9-5,18.8-9.5,27.4c-5.8,10.8-14.8,16-27.4,16.1
			c-8,0.2-15.6-0.6-22.3-2c-3.8-0.9-5.3-2-4.6-5.9c2.8-16.2,9-28.2,19.4-33.6C29.3,8.6,44.7,8.3,63.5,10.7L63.5,10.7z M37.1,16.6
			c-11.8-0.4-17.6,2-22.5,9.1c-3.6,5.4-5,11.6-6.5,20c7.1,1.4,14.7,2.4,21.6,2.6c8.3,0.4,14.3-3.2,18.2-10.2
			c2.5-4.8,4.6-11.4,6.5-18.9c0.2-0.7,0.2-1.2-0.8-1.3C48.2,17.2,42.7,16.7,37.1,16.6z"/>
	</g>
</g>
</svg>
